<?xml version="1.0" standalone="no"?>
<!DOCTYPE svg PUBLIC "-//W3C//DTD SVG 20010904//EN"
 "http://www.w3.org/TR/2001/REC-SVG-20010904/DTD/svg10.dtd">
<svg version="1.0" xmlns="http://www.w3.org/2000/svg"
 width="256.000000pt" height="256.000000pt" viewBox="0 0 256.000000 256.000000"
 preserveAspectRatio="xMidYMid meet">

<g transform="translate(0.000000,256.000000) scale(0.100000,-0.100000)"
fill="#000000" stroke="none">
<path d="M1411 2243 c-9 -36 -57 -239 -115 -483 -14 -58 -39 -163 -56 -235
-139 -581 -240 -1007 -240 -1011 0 -2 28 -4 63 -4 l63 0 157 658 c220 923 257
1075 263 1095 5 15 -2 17 -60 17 l-65 0 -10 -37z"/>
<path d="M770 1575 l0 -455 70 0 70 0 0 390 0 390 175 0 176 0 -3 63 -3 62
-242 3 -243 2 0 -455z"/>
<path d="M1650 1280 l0 -390 -175 0 -175 0 0 -60 0 -60 245 0 245 0 0 450 0
450 -70 0 -70 0 0 -390z"/>
</g>
</svg>
